<svg width="402.326" height="72.093" viewBox="0 0 402.326 72.093" xmlns="http://www.w3.org/2000/svg"><g id="svgGroup" stroke-linecap="round" fill-rule="evenodd" font-size="9pt" stroke="#000000" stroke-width="0.25mm" fill="#ffffff" style="stroke:#000000;stroke-width:0.25mm;fill:#ffffff"><path d="M 302.326 53.488 L 302.326 48.837 L 306.977 48.837 L 306.977 27.907 L 302.326 27.907 L 302.326 23.256 L 304.651 23.256 L 304.651 20.93 L 306.977 20.93 L 306.977 18.605 L 313.953 18.605 L 313.953 20.93 L 316.279 20.93 L 316.279 23.256 L 320.93 23.256 L 320.93 20.93 L 323.256 20.93 L 323.256 18.605 L 332.558 18.605 L 332.558 20.93 L 334.884 20.93 L 334.884 23.256 L 339.535 23.256 L 339.535 20.93 L 341.86 20.93 L 341.86 18.605 L 351.163 18.605 L 351.163 20.93 L 353.488 20.93 L 353.488 23.256 L 358.14 23.256 L 358.14 27.907 L 353.488 27.907 L 353.488 48.837 L 358.14 48.837 L 358.14 51.163 L 355.814 51.163 L 355.814 53.488 L 353.488 53.488 L 353.488 55.814 L 351.163 55.814 L 351.163 58.14 L 344.186 58.14 L 344.186 53.488 L 339.535 53.488 L 339.535 48.837 L 344.186 48.837 L 344.186 27.907 L 334.884 27.907 L 334.884 48.837 L 337.209 48.837 L 337.209 53.488 L 334.884 53.488 L 334.884 55.814 L 332.558 55.814 L 332.558 58.14 L 325.581 58.14 L 325.581 53.488 L 320.93 53.488 L 320.93 48.837 L 325.581 48.837 L 325.581 27.907 L 316.279 27.907 L 316.279 48.837 L 318.605 48.837 L 318.605 53.488 L 316.279 53.488 L 316.279 55.814 L 313.953 55.814 L 313.953 58.14 L 306.977 58.14 L 306.977 53.488 L 302.326 53.488 Z M 0 53.488 L 0 48.837 L 4.651 48.837 L 4.651 6.977 L 6.977 6.977 L 6.977 4.651 L 9.302 4.651 L 9.302 2.326 L 11.628 2.326 L 11.628 0 L 13.953 0 L 13.953 23.256 L 16.279 23.256 L 16.279 20.93 L 18.605 20.93 L 18.605 18.605 L 30.233 18.605 L 30.233 20.93 L 32.558 20.93 L 32.558 23.256 L 37.209 23.256 L 37.209 27.907 L 32.558 27.907 L 32.558 58.14 L 30.233 58.14 L 30.233 60.465 L 27.907 60.465 L 27.907 62.791 L 25.581 62.791 L 25.581 65.116 L 23.256 65.116 L 23.256 67.442 L 20.93 67.442 L 20.93 69.767 L 18.605 69.767 L 18.605 72.093 L 13.953 72.093 L 13.953 65.116 L 16.279 65.116 L 16.279 62.791 L 18.605 62.791 L 18.605 60.465 L 20.93 60.465 L 20.93 58.14 L 23.256 58.14 L 23.256 23.256 L 20.93 23.256 L 20.93 25.581 L 18.605 25.581 L 18.605 27.907 L 16.279 27.907 L 16.279 30.233 L 13.953 30.233 L 13.953 48.837 L 18.605 48.837 L 18.605 51.163 L 16.279 51.163 L 16.279 53.488 L 13.953 53.488 L 13.953 55.814 L 11.628 55.814 L 11.628 58.14 L 4.651 58.14 L 4.651 53.488 L 0 53.488 Z M 41.86 67.442 L 41.86 60.465 L 44.186 60.465 L 44.186 58.14 L 46.512 58.14 L 46.512 55.814 L 48.837 55.814 L 48.837 53.488 L 51.163 53.488 L 51.163 27.907 L 41.86 27.907 L 41.86 23.256 L 46.512 23.256 L 46.512 20.93 L 48.837 20.93 L 48.837 18.605 L 53.488 18.605 L 53.488 20.93 L 55.814 20.93 L 55.814 23.256 L 65.116 23.256 L 65.116 20.93 L 67.442 20.93 L 67.442 18.605 L 72.093 18.605 L 72.093 20.93 L 74.419 20.93 L 74.419 23.256 L 83.721 23.256 L 83.721 27.907 L 79.07 27.907 L 79.07 51.163 L 76.744 51.163 L 76.744 53.488 L 74.419 53.488 L 74.419 55.814 L 72.093 55.814 L 72.093 58.14 L 55.814 58.14 L 55.814 60.465 L 53.488 60.465 L 53.488 62.791 L 51.163 62.791 L 51.163 65.116 L 48.837 65.116 L 48.837 67.442 L 60.465 67.442 L 60.465 65.116 L 62.791 65.116 L 62.791 62.791 L 74.419 62.791 L 74.419 67.442 L 72.093 67.442 L 72.093 69.767 L 69.767 69.767 L 69.767 72.093 L 46.512 72.093 L 46.512 69.767 L 44.186 69.767 L 44.186 67.442 L 41.86 67.442 Z M 197.674 58.14 L 197.674 53.488 L 200 53.488 L 200 51.163 L 202.326 51.163 L 202.326 48.837 L 204.651 48.837 L 204.651 46.512 L 206.977 46.512 L 206.977 44.186 L 209.302 44.186 L 209.302 41.86 L 204.651 41.86 L 204.651 39.535 L 202.326 39.535 L 202.326 27.907 L 204.651 27.907 L 204.651 25.581 L 206.977 25.581 L 206.977 23.256 L 211.628 23.256 L 211.628 32.558 L 213.953 32.558 L 213.953 34.884 L 216.279 34.884 L 216.279 32.558 L 218.605 32.558 L 218.605 30.233 L 220.93 30.233 L 220.93 27.907 L 218.605 27.907 L 218.605 25.581 L 216.279 25.581 L 216.279 23.256 L 211.628 23.256 L 211.628 18.605 L 213.953 18.605 L 213.953 9.302 L 218.605 9.302 L 218.605 18.605 L 220.93 18.605 L 220.93 20.93 L 223.256 20.93 L 223.256 23.256 L 225.581 23.256 L 225.581 25.581 L 227.907 25.581 L 227.907 30.233 L 225.581 30.233 L 225.581 32.558 L 223.256 32.558 L 223.256 34.884 L 227.907 34.884 L 227.907 37.209 L 230.233 37.209 L 230.233 46.512 L 227.907 46.512 L 227.907 48.837 L 225.581 48.837 L 225.581 51.163 L 223.256 51.163 L 223.256 53.488 L 220.93 53.488 L 220.93 55.814 L 218.605 55.814 L 218.605 58.14 L 216.279 58.14 L 216.279 67.442 L 211.628 67.442 L 211.628 58.14 L 209.302 58.14 L 209.302 55.814 L 206.977 55.814 L 206.977 53.488 L 202.326 53.488 L 202.326 55.814 L 200 55.814 L 200 58.14 L 197.674 58.14 Z M 274.419 55.814 L 274.419 58.14 L 267.442 58.14 L 267.442 53.488 L 260.465 53.488 L 260.465 48.837 L 265.116 48.837 L 265.116 27.907 L 260.465 27.907 L 260.465 25.581 L 262.791 25.581 L 262.791 23.256 L 265.116 23.256 L 265.116 20.93 L 267.442 20.93 L 267.442 18.605 L 272.093 18.605 L 272.093 20.93 L 274.419 20.93 L 274.419 48.837 L 283.721 48.837 L 283.721 27.907 L 279.07 27.907 L 279.07 23.256 L 283.721 23.256 L 283.721 20.93 L 286.047 20.93 L 286.047 18.605 L 290.698 18.605 L 290.698 20.93 L 293.023 20.93 L 293.023 23.256 L 297.674 23.256 L 297.674 27.907 L 293.023 27.907 L 293.023 48.837 L 297.674 48.837 L 297.674 51.163 L 295.349 51.163 L 295.349 53.488 L 293.023 53.488 L 293.023 55.814 L 290.698 55.814 L 290.698 58.14 L 283.721 58.14 L 283.721 53.488 L 276.744 53.488 L 276.744 55.814 L 274.419 55.814 Z M 88.372 58.14 L 88.372 53.488 L 90.698 53.488 L 90.698 51.163 L 93.023 51.163 L 93.023 48.837 L 95.349 48.837 L 95.349 27.907 L 90.698 27.907 L 90.698 23.256 L 93.023 23.256 L 93.023 20.93 L 95.349 20.93 L 95.349 18.605 L 102.326 18.605 L 102.326 20.93 L 104.651 20.93 L 104.651 23.256 L 109.302 23.256 L 109.302 20.93 L 111.628 20.93 L 111.628 18.605 L 120.93 18.605 L 120.93 20.93 L 123.256 20.93 L 123.256 23.256 L 127.907 23.256 L 127.907 27.907 L 123.256 27.907 L 123.256 48.837 L 127.907 48.837 L 127.907 53.488 L 120.93 53.488 L 120.93 55.814 L 118.605 55.814 L 118.605 58.14 L 113.953 58.14 L 113.953 53.488 L 104.651 53.488 L 104.651 65.116 L 102.326 65.116 L 102.326 67.442 L 100 67.442 L 100 69.767 L 97.674 69.767 L 97.674 72.093 L 95.349 72.093 L 95.349 55.814 L 93.023 55.814 L 93.023 58.14 L 88.372 58.14 Z M 362.791 58.14 L 362.791 53.488 L 365.116 53.488 L 365.116 51.163 L 367.442 51.163 L 367.442 48.837 L 369.767 48.837 L 369.767 27.907 L 365.116 27.907 L 365.116 23.256 L 367.442 23.256 L 367.442 20.93 L 369.767 20.93 L 369.767 18.605 L 376.744 18.605 L 376.744 20.93 L 379.07 20.93 L 379.07 23.256 L 383.721 23.256 L 383.721 20.93 L 386.047 20.93 L 386.047 18.605 L 395.349 18.605 L 395.349 20.93 L 397.674 20.93 L 397.674 23.256 L 402.326 23.256 L 402.326 27.907 L 397.674 27.907 L 397.674 48.837 L 402.326 48.837 L 402.326 53.488 L 395.349 53.488 L 395.349 55.814 L 393.023 55.814 L 393.023 58.14 L 388.372 58.14 L 388.372 53.488 L 379.07 53.488 L 379.07 65.116 L 376.744 65.116 L 376.744 67.442 L 374.419 67.442 L 374.419 69.767 L 372.093 69.767 L 372.093 72.093 L 369.767 72.093 L 369.767 55.814 L 367.442 55.814 L 367.442 58.14 L 362.791 58.14 Z M 132.558 53.488 L 132.558 48.837 L 137.209 48.837 L 137.209 27.907 L 139.535 27.907 L 139.535 25.581 L 141.86 25.581 L 141.86 23.256 L 144.186 23.256 L 144.186 20.93 L 146.512 20.93 L 146.512 18.605 L 158.14 18.605 L 158.14 20.93 L 160.465 20.93 L 160.465 23.256 L 162.791 23.256 L 162.791 32.558 L 158.14 32.558 L 158.14 30.233 L 155.814 30.233 L 155.814 27.907 L 153.488 27.907 L 153.488 25.581 L 151.163 25.581 L 151.163 23.256 L 148.837 23.256 L 148.837 25.581 L 146.512 25.581 L 146.512 32.558 L 158.14 32.558 L 158.14 37.209 L 146.512 37.209 L 146.512 48.837 L 155.814 48.837 L 155.814 51.163 L 153.488 51.163 L 153.488 53.488 L 151.163 53.488 L 151.163 55.814 L 148.837 55.814 L 148.837 58.14 L 141.86 58.14 L 141.86 55.814 L 139.535 55.814 L 139.535 53.488 L 132.558 53.488 Z M 167.442 53.488 L 167.442 48.837 L 172.093 48.837 L 172.093 27.907 L 167.442 27.907 L 167.442 23.256 L 169.767 23.256 L 169.767 20.93 L 172.093 20.93 L 172.093 18.605 L 176.744 18.605 L 176.744 23.256 L 179.07 23.256 L 179.07 20.93 L 181.395 20.93 L 181.395 18.605 L 193.023 18.605 L 193.023 20.93 L 195.349 20.93 L 195.349 27.907 L 188.372 27.907 L 188.372 25.581 L 186.047 25.581 L 186.047 23.256 L 183.721 23.256 L 183.721 25.581 L 181.395 25.581 L 181.395 48.837 L 183.721 48.837 L 183.721 53.488 L 181.395 53.488 L 181.395 55.814 L 179.07 55.814 L 179.07 58.14 L 172.093 58.14 L 172.093 53.488 L 167.442 53.488 Z M 237.209 53.488 L 237.209 48.837 L 241.86 48.837 L 241.86 6.977 L 244.186 6.977 L 244.186 4.651 L 246.512 4.651 L 246.512 2.326 L 248.837 2.326 L 248.837 0 L 251.163 0 L 251.163 48.837 L 255.814 48.837 L 255.814 51.163 L 253.488 51.163 L 253.488 53.488 L 251.163 53.488 L 251.163 55.814 L 248.837 55.814 L 248.837 58.14 L 241.86 58.14 L 241.86 53.488 L 237.209 53.488 Z M 65.116 48.837 L 69.767 48.837 L 69.767 53.488 L 60.465 53.488 L 60.465 27.907 L 69.767 27.907 L 69.767 44.186 L 67.442 44.186 L 67.442 46.512 L 65.116 46.512 L 65.116 48.837 Z M 104.651 27.907 L 113.953 27.907 L 113.953 48.837 L 104.651 48.837 L 104.651 27.907 Z M 379.07 27.907 L 388.372 27.907 L 388.372 48.837 L 379.07 48.837 L 379.07 27.907 Z M 211.628 48.837 L 209.302 48.837 L 209.302 46.512 L 211.628 46.512 L 211.628 44.186 L 213.953 44.186 L 213.953 41.86 L 216.279 41.86 L 216.279 39.535 L 220.93 39.535 L 220.93 48.837 L 218.605 48.837 L 218.605 51.163 L 211.628 51.163 L 211.628 48.837 Z M 227.907 25.581 L 227.907 16.279 L 232.558 16.279 L 232.558 25.581 L 227.907 25.581 Z" vector-effect="non-scaling-stroke"/></g></svg>