<svg xmlns="http://www.w3.org/2000/svg" viewBox="0 0 32 32" fill="none">
  <!-- Card Body with top-right cutout -->
  <path d="M5 4C5 2.89543 5.89543 2 7 2H21.5L27 7.5V28C27 29.1046 26.1046 30 25 30H7C5.89543 30 5 29.1046 5 28V4Z" fill="#18181b"/>
  
  <!-- Contacts -->
  <rect x="7" y="3" width="2" height="5" fill="#eab308" rx="0.5"/>
  <rect x="10" y="3" width="2" height="5" fill="#eab308" rx="0.5"/>
  <rect x="13" y="3" width="2" height="5" fill="#eab308" rx="0.5"/>
  <rect x="16" y="3" width="2" height="5" fill="#eab308" rx="0.5"/>
  <rect x="19" y="3" width="2" height="5" fill="#eab308" rx="0.5"/>
  <rect x="22" y="4" width="2" height="4" fill="#eab308" rx="0.5"/>

  <!-- Sticker Label -->
  <rect x="7" y="10" width="18" height="18" rx="1" fill="#f4f4f5"/>
  
  <!-- Top ID Text -->
  <text x="16" y="13.5" font-family="monospace" font-size="2.2" fill="#71717a" text-anchor="middle" font-weight="900">HYPERSLUMP_01</text>
  
  <!-- "H$" Logo - Hand-crafted for maximum clarity and "Gothic/Brutalist" feel -->
  <g fill="black">
    <!-- H -->
    <path d="M10 16H11V22H10V16ZM14 16H15V22H14V16ZM11 18.5H14V19.5H11V18.5Z"/>
    <!-- $ (Stylized with clear S shape and bars) -->
    <path d="M17 16H21V17H17V18.5H19.5C20.5 18.5 21 19 21 20V21.5C21 22.5 20.5 23 19 23H17V22H21V20.5H18.5C17.5 20.5 17 20 17 19V17.5C17 16.5 17.5 16 19 16ZM18.5 15.5H19.5V23.5H18.5V15.5Z"/>
  </g>

  <!-- Red Accent Stripe -->
  <rect x="7" y="24" width="18" height="2" fill="#ef4444"/>
  
  <!-- Lightning Bolt Icon -->
  <path d="M16 24L15.5 25H16L15.5 26L17 25H16.5L17 24H16Z" fill="white"/>
</svg>
